999
dxfrw 0.5.11
0
SECTION
2
HEADER
9
$ACADVER
1
AC1021
9
$HANDSEED
5
20000
9
$DWGCODEPAGE
3
ANSI_1252
9
$INSBASE
10
0
20
0
30
0
9
$EXTMIN
10
-140
20
-30
30
0
9
$EXTMAX
10
130
20
250
30
0
9
$LIMMIN
10
0
20
0
9
$LIMMAX
10
420
20
297
9
$ORTHOMODE
70
0
9
$LTSCALE
40
1
9
$TEXTSTYLE
7
STANDARD
9
$CLAYER
8
plate
9
$DIMASZ
40
2.5
9
$DIMLFAC
40
1
9
$DIMSCALE
40
1
9
$DIMEXO
40
0.625
9
$DIMEXE
40
1.25
9
$DIMTXT
40
2.5
9
$DIMTSZ
40
0
9
$DIMAUNIT
70
0
9
$DIMADEC
70
2
9
$DIMLUNIT
70
2
9
$DIMSTYLE
2
STANDARD
9
$DIMGAP
40
0.625
9
$DIMTIH
70
0
9
$LUNITS
70
2
9
$LUPREC
70
1
9
$AUNITS
70
0
9
$AUPREC
70
2
9
$SPLINESEGS
70
8
9
$GRIDMODE
70
1
9
$SNAPSTYLE
70
0
9
$GRIDUNIT
10
0.1
20
0.1
9
$PINSBASE
10
108.425925926
20
73.1296296296
30
0
9
$PLIMMIN
10
0
20
0
9
$PLIMMAX
10
210
20
297
9
$INSUNITS
70
4
9
$PSVPSCALE
40
0.685184931413
0
ENDSEC
0
SECTION
2
CLASSES
0
ENDSEC
0
SECTION
2
TABLES
0
TABLE
2
VPORT
5
8
330
0
100
AcDbSymbolTable
70
1
0
VPORT
5
31
330
2
100
AcDbSymbolTableRecord
100
AcDbViewportTableRecord
2
*ACTIVE
70
0
10
0
20
0
11
1
21
1
12
121.505116083
22
120.772053542
13
0
23
0
14
10
24
10
15
0.1
25
0.1
16
0
26
0
36
1
17
0
27
0
37
0
40
274.531921406
41
2.10146862483
42
50
43
0
44
0
50
0
51
0
71
0
72
100
73
1
74
3
75
0
76
1
77
0
78
0
281
0
65
1
110
0
120
0
130
0
111
1
121
0
131
0
112
0
122
1
132
0
79
0
146
0
348
10020
60
3
61
5
292
1
282
1
141
0
142
0
63
250
421
3358443
0
ENDTAB
0
TABLE
2
LTYPE
5
5
330
0
100
AcDbSymbolTable
70
4
0
LTYPE
5
14
330
5
100
AcDbSymbolTableRecord
100
AcDbLinetypeTableRecord
2
ByBlock
70
0
3

72
65
73
0
40
0
0
LTYPE
5
15
330
5
100
AcDbSymbolTableRecord
100
AcDbLinetypeTableRecord
2
ByLayer
70
0
3

72
65
73
0
40
0
0
LTYPE
5
16
330
5
100
AcDbSymbolTableRecord
100
AcDbLinetypeTableRecord
2
Continuous
70
0
3
Solid line
72
65
73
0
40
0
0
LTYPE
5
32
330
5
100
AcDbSymbolTableRecord
100
AcDbLinetypeTableRecord
2
DOT
70
0
3
Dot . . . . . . . . . . . . . . . . . . . . . .
72
65
73
2
40
6.35
49
0
74
0
49
-6.35
74
0
0
LTYPE
5
33
330
5
100
AcDbSymbolTableRecord
100
AcDbLinetypeTableRecord
2
DOT2
70
0
3
Dot (.5x) .....................................
72
65
73
2
40
3.175
49
0
74
0
49
-3.175
74
0
0
LTYPE
5
34
330
5
100
AcDbSymbolTableRecord
100
AcDbLinetypeTableRecord
2
DOTX2
70
0
3
Dot (2x) .  .  .  .  .  .  .  .  .  .  .  .  .
72
65
73
2
40
12.7
49
0
74
0
49
-12.7
74
0
0
LTYPE
5
35
330
5
100
AcDbSymbolTableRecord
100
AcDbLinetypeTableRecord
2
DASHED
70
0
3
Dot . . . . . . . . . . . . . . . . . . . . . .
72
65
73
2
40
19.05
49
12.7
74
0
49
-6.35
74
0
0
LTYPE
5
36
330
5
100
AcDbSymbolTableRecord
100
AcDbLinetypeTableRecord
2
DASHED2
70
0
3
Dashed (.5x) _ _ _ _ _ _ _ _ _ _ _ _ _ _ _ _ _
72
65
73
2
40
9.525
49
6.35
74
0
49
-3.175
74
0
0
LTYPE
5
37
330
5
100
AcDbSymbolTableRecord
100
AcDbLinetypeTableRecord
2
DASHEDX2
70
0
3
Dashed (2x) ____  ____  ____  ____  ____  ___
72
65
73
2
40
38.1
49
25.4
74
0
49
-12.7
74
0
0
LTYPE
5
38
330
5
100
AcDbSymbolTableRecord
100
AcDbLinetypeTableRecord
2
DASHDOT
70
0
3
Dash dot __ . __ . __ . __ . __ . __ . __ . __
72
65
73
4
40
25.4
49
12.7
74
0
49
-6.35
74
0
49
0
74
0
49
-6.35
74
0
0
LTYPE
5
39
330
5
100
AcDbSymbolTableRecord
100
AcDbLinetypeTableRecord
2
DASHDOT2
70
0
3
Dash dot (.5x) _._._._._._._._._._._._._._._.
72
65
73
4
40
12.7
49
6.35
74
0
49
-3.175
74
0
49
0
74
0
49
-3.175
74
0
0
LTYPE
5
3A
330
5
100
AcDbSymbolTableRecord
100
AcDbLinetypeTableRecord
2
DASHDOTX2
70
0
3
Dash dot (2x) ____  .  ____  .  ____  .  ___
72
65
73
4
40
50.8
49
25.4
74
0
49
-12.7
74
0
49
0
74
0
49
-12.7
74
0
0
LTYPE
5
3B
330
5
100
AcDbSymbolTableRecord
100
AcDbLinetypeTableRecord
2
DIVIDE
70
0
3
Divide ____ . . ____ . . ____ . . ____ . . ____
72
65
73
6
40
31.75
49
12.7
74
0
49
-6.35
74
0
49
0
74
0
49
-6.35
74
0
49
0
74
0
49
-6.35
74
0
0
LTYPE
5
3C
330
5
100
AcDbSymbolTableRecord
100
AcDbLinetypeTableRecord
2
DIVIDE2
70
0
3
Divide (.5x) __..__..__..__..__..__..__..__.._
72
65
73
6
40
15.875
49
6.35
74
0
49
-3.175
74
0
49
0
74
0
49
-3.175
74
0
49
0
74
0
49
-3.175
74
0
0
LTYPE
5
3D
330
5
100
AcDbSymbolTableRecord
100
AcDbLinetypeTableRecord
2
DIVIDEX2
70
0
3
Divide (2x) ________  .  .  ________  .  .  _
72
65
73
6
40
63.5
49
25.4
74
0
49
-12.7
74
0
49
0
74
0
49
-12.7
74
0
49
0
74
0
49
-12.7
74
0
0
LTYPE
5
3E
330
5
100
AcDbSymbolTableRecord
100
AcDbLinetypeTableRecord
2
BORDER
70
0
3
Border __ __ . __ __ . __ __ . __ __ . __ __ .
72
65
73
6
40
44.45
49
12.7
74
0
49
-6.35
74
0
49
12.7
74
0
49
-6.35
74
0
49
0
74
0
49
-6.35
74
0
0
LTYPE
5
3F
330
5
100
AcDbSymbolTableRecord
100
AcDbLinetypeTableRecord
2
BORDER2
70
0
3
Border (.5x) __.__.__.__.__.__.__.__.__.__.__.
72
65
73
6
40
22.225
49
6.35
74
0
49
-3.175
74
0
49
6.35
74
0
49
-3.175
74
0
49
0
74
0
49
-3.175
74
0
0
LTYPE
5
40
330
5
100
AcDbSymbolTableRecord
100
AcDbLinetypeTableRecord
2
BORDERX2
70
0
3
Border (2x) ____  ____  .  ____  ____  .  ___
72
65
73
6
40
88.9
49
25.4
74
0
49
-12.7
74
0
49
25.4
74
0
49
-12.7
74
0
49
0
74
0
49
-12.7
74
0
0
LTYPE
5
41
330
5
100
AcDbSymbolTableRecord
100
AcDbLinetypeTableRecord
2
CENTER
70
0
3
Center ____ _ ____ _ ____ _ ____ _ ____ _ ____
72
65
73
4
40
50.8
49
31.75
74
0
49
-6.35
74
0
49
6.35
74
0
49
-6.35
74
0
0
LTYPE
5
42
330
5
100
AcDbSymbolTableRecord
100
AcDbLinetypeTableRecord
2
CENTER2
70
0
3
Center (.5x) ___ _ ___ _ ___ _ ___ _ ___ _ ___
72
65
73
4
40
28.575
49
19.05
74
0
49
-3.175
74
0
49
3.175
74
0
49
-3.175
74
0
0
LTYPE
5
43
330
5
100
AcDbSymbolTableRecord
100
AcDbLinetypeTableRecord
2
CENTERX2
70
0
3
Center (2x) ________  __  ________  __  _____
72
65
73
4
40
101.6
49
63.5
74
0
49
-12.7
74
0
49
12.7
74
0
49
-12.7
74
0
0
ENDTAB
0
TABLE
2
LAYER
5
2
330
0
100
AcDbSymbolTable
70
1
0
LAYER
5
10
330
2
100
AcDbSymbolTableRecord
100
AcDbLayerTableRecord
2
0
70
1
62
7
6
CONTINUOUS
370
0
390
F
0
LAYER
5
44
330
2
100
AcDbSymbolTableRecord
100
AcDbLayerTableRecord
2
alu_frame
70
0
62
7
6
CONTINUOUS
370
0
390
F
0
LAYER
5
45
330
2
100
AcDbSymbolTableRecord
100
AcDbLayerTableRecord
2
axes
70
4
62
1
6
DASHDOT
370
0
390
F
0
LAYER
5
46
330
2
100
AcDbSymbolTableRecord
100
AcDbLayerTableRecord
2
pcb
70
1
62
4
6
CONTINUOUS
370
0
390
F
0
LAYER
5
47
330
2
100
AcDbSymbolTableRecord
100
AcDbLayerTableRecord
2
plate
70
1
62
216
420
8388736
6
CONTINUOUS
370
0
390
F
0
LAYER
5
48
330
2
100
AcDbSymbolTableRecord
100
AcDbLayerTableRecord
2
plate_dim
70
1
62
6
6
CONTINUOUS
370
0
390
F
0
ENDTAB
0
TABLE
2
STYLE
5
3
330
0
100
AcDbSymbolTable
70
3
0
STYLE
5
49
330
2
100
AcDbSymbolTableRecord
100
AcDbTextStyleTableRecord
2
Standard
70
0
40
0
41
1
50
0
71
0
42
1
3
txt
4

0
ENDTAB
0
TABLE
2
VIEW
5
6
330
0
100
AcDbSymbolTable
70
0
0
ENDTAB
0
TABLE
2
UCS
5
7
330
0
100
AcDbSymbolTable
70
0
0
ENDTAB
0
TABLE
2
APPID
5
9
330
0
100
AcDbSymbolTable
70
1
0
APPID
5
12
330
9
100
AcDbSymbolTableRecord
100
AcDbRegAppTableRecord
2
ACAD
70
0
0
ENDTAB
0
TABLE
2
DIMSTYLE
5
A
330
0
100
AcDbSymbolTable
70
1
100
AcDbDimStyleTable
71
1
0
DIMSTYLE
105
4A
330
A
100
AcDbSymbolTableRecord
100
AcDbDimStyleTableRecord
2
Standard
70
0
40
1
41
2.5
42
0.625
43
0.38
44
1.25
45
0
46
0
47
0
48
0
140
2.5
141
0.09
142
0
143
25.4
144
1
145
0
146
1
147
0.625
148
0
71
0
72
0
73
0
74
1
75
0
76
0
77
0
78
0
79
0
170
0
171
2
172
0
173
0
174
0
175
0
176
0
177
0
178
0
179
0
271
4
272
4
273
2
274
2
275
0
276
0
277
2
278
46
279
0
280
0
281
0
282
0
283
1
284
0
285
0
286
0
288
0
289
3
340
Standard
341

371
-2
372
-2
0
ENDTAB
0
TABLE
2
BLOCK_RECORD
5
1
330
0
100
AcDbSymbolTable
70
2
0
BLOCK_RECORD
5
1F
330
1
100
AcDbSymbolTableRecord
100
AcDbBlockTableRecord
2
*Model_Space
70
0
280
1
281
0
0
BLOCK_RECORD
5
1E
330
1
100
AcDbSymbolTableRecord
100
AcDbBlockTableRecord
2
*Paper_Space
70
0
280
1
281
0
0
BLOCK_RECORD
5
4B
330
1
100
AcDbSymbolTableRecord
100
AcDbBlockTableRecord
2
*D2
70
0
280
1
281
0
0
BLOCK_RECORD
5
4E
330
1
100
AcDbSymbolTableRecord
100
AcDbBlockTableRecord
2
*D4
70
0
280
1
281
0
0
BLOCK_RECORD
5
51
330
1
100
AcDbSymbolTableRecord
100
AcDbBlockTableRecord
2
*D1
70
0
280
1
281
0
0
BLOCK_RECORD
5
54
330
1
100
AcDbSymbolTableRecord
100
AcDbBlockTableRecord
2
*D3
70
0
280
1
281
0
0
BLOCK_RECORD
5
57
330
1
100
AcDbSymbolTableRecord
100
AcDbBlockTableRecord
2
lm8uu
70
0
280
1
281
0
0
ENDTAB
0
ENDSEC
0
SECTION
2
BLOCKS
0
BLOCK
5
20
330
1F
100
AcDbEntity
8
0
100
AcDbBlockBegin
2
*Model_Space
70
0
10
0
20
0
30
0
3
*Model_Space
1

0
ENDBLK
5
21
330
1F
100
AcDbEntity
8
0
100
AcDbBlockEnd
0
BLOCK
5
1C
330
1B
100
AcDbEntity
8
0
100
AcDbBlockBegin
2
*Paper_Space
70
0
10
0
20
0
30
0
3
*Paper_Space
1

0
ENDBLK
5
1D
330
1F
100
AcDbEntity
8
0
100
AcDbBlockEnd
0
BLOCK
5
4C
330
4B
100
AcDbEntity
8
0
100
AcDbBlockBegin
2
*D2
70
1
10
0
20
0
3
*D2
1

0
LINE
5
5A
100
AcDbEntity
8
plate_dim
6
CONTINUOUS
62
7
370
0
100
AcDbLine
10
-115.625
20
220
11
-128.25
21
220
0
LINE
5
5B
100
AcDbEntity
8
plate_dim
6
CONTINUOUS
62
7
370
0
100
AcDbLine
10
-115.625
20
3.54096181103e-16
11
-128.25
21
7.50683903938e-15
0
LINE
5
5C
100
AcDbEntity
8
plate_dim
6
CONTINUOUS
62
7
370
0
100
AcDbLine
10
-127
20
220
11
-127
21
6.79864667718e-15
0
SOLID
5
5D
100
AcDbEntity
8
plate_dim
6
CONTINUOUS
62
7
370
0
100
AcDbTrace
10
-127
20
220
30
0
11
-126.583715342
21
217.5
31
0
12
-127.416284658
22
217.5
32
0
13
-127.416284658
23
217.5
33
0
0
SOLID
5
5E
100
AcDbEntity
8
plate_dim
6
CONTINUOUS
62
7
370
0
100
AcDbTrace
10
-127
20
6.79864667718e-15
30
0
11
-127.416284658
21
2.5
31
0
12
-126.583715342
22
2.5
32
0
13
-126.583715342
23
2.5
33
0
0
MTEXT
5
5F
100
AcDbEntity
8
plate_dim
6
CONTINUOUS
62
7
370
0
100
AcDbMText
10
-128.875
20
110
30
0
40
2.5
41
7.77777777778
71
5
72
1
1
220.0
7
standard
210
0
220
0
230
1
50
90
73
2
44
1
0
ENDBLK
5
4D
330
4B
100
AcDbEntity
8
0
100
AcDbBlockEnd
0
BLOCK
5
4F
330
4E
100
AcDbEntity
8
0
100
AcDbBlockBegin
2
*D4
70
1
10
0
20
0
3
*D4
1

0
LINE
5
60
100
AcDbEntity
8
plate_dim
6
CONTINUOUS
62
7
370
0
100
AcDbLine
10
120
20
205
11
120
21
110
0
SOLID
5
61
100
AcDbEntity
8
plate_dim
6
CONTINUOUS
62
7
370
0
100
AcDbTrace
10
120
20
205
30
0
11
120.416284658
21
202.5
31
0
12
119.583715342
22
202.5
32
0
13
119.583715342
23
202.5
33
0
0
SOLID
5
62
100
AcDbEntity
8
plate_dim
6
CONTINUOUS
62
7
370
0
100
AcDbTrace
10
120
20
110
30
0
11
119.583715342
21
112.5
31
0
12
120.416284658
22
112.5
32
0
13
120.416284658
23
112.5
33
0
0
MTEXT
5
63
100
AcDbEntity
8
plate_dim
6
CONTINUOUS
62
7
370
0
100
AcDbMText
10
118.125
20
157.5
30
0
40
2.5
41
5.83333333333
71
5
72
1
1
95.0
7
standard
210
0
220
0
230
1
50
90
73
2
44
1
0
LINE
5
64
100
AcDbEntity
8
plate_dim
6
CONTINUOUS
62
7
370
0
100
AcDbLine
10
111.625
20
205
11
121.25
21
205
0
LINE
5
65
100
AcDbEntity
8
plate_dim
6
CONTINUOUS
62
7
370
0
100
AcDbLine
10
120.625
20
110
11
121.25
21
110
0
ENDBLK
5
50
330
4E
100
AcDbEntity
8
0
100
AcDbBlockEnd
0
BLOCK
5
52
330
51
100
AcDbEntity
8
0
100
AcDbBlockBegin
2
*D1
70
1
10
0
20
0
3
*D1
1

0
LINE
5
66
100
AcDbEntity
8
plate_dim
6
CONTINUOUS
62
7
370
0
100
AcDbLine
10
-115
20
233
11
115
21
233
0
SOLID
5
67
100
AcDbEntity
8
plate_dim
6
CONTINUOUS
62
7
370
0
100
AcDbTrace
10
-115
20
233
30
0
11
-112.5
21
233.416284658
31
0
12
-112.5
22
232.583715342
32
0
13
-112.5
23
232.583715342
33
0
0
SOLID
5
68
100
AcDbEntity
8
plate_dim
6
CONTINUOUS
62
7
370
0
100
AcDbTrace
10
115
20
233
30
0
11
112.5
21
232.583715342
31
0
12
112.5
22
233.416284658
32
0
13
112.5
23
233.416284658
33
0
0
MTEXT
5
69
100
AcDbEntity
8
plate_dim
6
CONTINUOUS
62
7
370
0
100
AcDbMText
10
0
20
234.875
30
0
40
2.5
41
7.77777777778
71
5
72
1
1
230.0
7
standard
210
0
220
0
230
1
50
0
73
2
44
1
0
LINE
5
6A
100
AcDbEntity
8
plate_dim
6
CONTINUOUS
62
7
370
0
100
AcDbLine
10
-115
20
220.625
11
-115
21
234.25
0
LINE
5
6B
100
AcDbEntity
8
plate_dim
6
CONTINUOUS
62
7
370
0
100
AcDbLine
10
115
20
220.625
11
115
21
234.25
0
ENDBLK
5
53
330
51
100
AcDbEntity
8
0
100
AcDbBlockEnd
0
BLOCK
5
55
330
54
100
AcDbEntity
8
0
100
AcDbBlockBegin
2
*D3
70
1
10
0
20
0
3
*D3
1

0
LINE
5
6C
100
AcDbEntity
8
plate_dim
6
CONTINUOUS
62
7
370
0
100
AcDbLine
10
-120
20
110
11
-120
21
-9.86076131526e-32
0
SOLID
5
6D
100
AcDbEntity
8
plate_dim
6
CONTINUOUS
62
7
370
0
100
AcDbTrace
10
-120
20
110
30
0
11
-119.583715342
21
107.5
31
0
12
-120.416284658
22
107.5
32
0
13
-120.416284658
23
107.5
33
0
0
SOLID
5
6E
100
AcDbEntity
8
plate_dim
6
CONTINUOUS
62
7
370
0
100
AcDbTrace
10
-120
20
-9.86076131526e-32
30
0
11
-120.416284658
21
2.5
31
0
12
-119.583715342
22
2.5
32
0
13
-119.583715342
23
2.5
33
0
0
MTEXT
5
6F
100
AcDbEntity
8
plate_dim
6
CONTINUOUS
62
7
370
0
100
AcDbMText
10
-121.875
20
55
30
0
40
2.5
41
6.66666666667
71
5
72
1
1
110.0
7
standard
210
0
220
0
230
1
50
90
73
2
44
1
0
LINE
5
70
100
AcDbEntity
8
plate_dim
6
CONTINUOUS
62
7
370
0
100
AcDbLine
10
-111.625
20
110
11
-121.25
21
110
0
LINE
5
71
100
AcDbEntity
8
plate_dim
6
CONTINUOUS
62
7
370
0
100
AcDbLine
10
-115.625
20
7.65404249467e-17
11
-121.25
21
1.53080849893e-16
0
ENDBLK
5
56
330
54
100
AcDbEntity
8
0
100
AcDbBlockEnd
0
BLOCK
5
58
330
57
100
AcDbEntity
8
0
100
AcDbBlockBegin
2
lm8uu
70
0
10
0
20
0
3
lm8uu
1

0
LINE
5
72
100
AcDbEntity
8
0
6
ByLayer
62
256
370
-1
100
AcDbLine
10
-10.7
20
-15
11
10.7
21
-15
0
LINE
5
73
100
AcDbEntity
8
0
6
ByLayer
62
256
370
-1
100
AcDbLine
10
10.7
20
-15
11
10.7
21
15
0
LINE
5
74
100
AcDbEntity
8
0
6
ByLayer
62
256
370
-1
100
AcDbLine
10
10.7
20
15
11
-10.7
21
15
0
LINE
5
75
100
AcDbEntity
8
0
6
ByLayer
62
256
370
-1
100
AcDbLine
10
-10.7
20
15
11
-10.7
21
-15
0
CIRCLE
5
76
100
AcDbEntity
8
0
6
ByLayer
62
256
370
-1
100
AcDbCircle
10
-16.7
20
0
40
1.6
0
LINE
5
77
100
AcDbEntity
8
0
6
ByLayer
62
256
370
-1
100
AcDbLine
10
-16.6860287631
20
-6.00001626631
11
-10.7
21
-6.00001626631
0
LINE
5
78
100
AcDbEntity
8
0
6
ByLayer
62
256
370
-1
100
AcDbLine
10
-16.6860287631
20
5.99998373369
11
-10.7
21
5.99998373369
0
ARC
5
79
100
AcDbEntity
8
0
6
ByLayer
62
256
370
-1
100
AcDbCircle
10
-16.7
20
0
40
6
100
AcDbArc
50
90.1334156056
51
270
0
CIRCLE
5
7A
100
AcDbEntity
8
0
6
ByLayer
62
256
370
-1
100
AcDbCircle
10
16.7
20
0
40
1.6
0
LINE
5
7B
100
AcDbEntity
8
0
6
ByLayer
62
256
370
-1
100
AcDbLine
10
16.6860287631
20
-6.00001626631
11
10.7
21
-6.00001626631
0
LINE
5
7C
100
AcDbEntity
8
0
6
ByLayer
62
256
370
-1
100
AcDbLine
10
16.6860287631
20
5.99998373369
11
10.7
21
5.99998373369
0
ARC
5
7D
100
AcDbEntity
8
0
6
ByLayer
62
256
370
-1
100
AcDbCircle
10
16.7
20
0
40
6
100
AcDbArc
50
270
51
89.8665843944
0
ENDBLK
5
59
330
57
100
AcDbEntity
8
0
100
AcDbBlockEnd
0
ENDSEC
0
SECTION
2
ENTITIES
0
LINE
5
7E
100
AcDbEntity
8
pcb
6
ByLayer
62
256
370
-1
100
AcDbLine
10
-107
20
3
11
107
21
3
0
LINE
5
7F
100
AcDbEntity
8
pcb
6
ByLayer
62
256
370
-1
100
AcDbLine
10
107
20
3
11
107
21
217
0
LINE
5
80
100
AcDbEntity
8
pcb
6
ByLayer
62
256
370
-1
100
AcDbLine
10
107
20
217
11
-107
21
217
0
LINE
5
81
100
AcDbEntity
8
pcb
6
ByLayer
62
256
370
-1
100
AcDbLine
10
-107
20
217
11
-107
21
3
0
CIRCLE
5
82
100
AcDbEntity
8
pcb
6
ByLayer
62
256
370
-1
100
AcDbCircle
10
-104.5
20
5.5
40
1.6
0
CIRCLE
5
83
100
AcDbEntity
8
pcb
6
ByLayer
62
256
370
-1
100
AcDbCircle
10
-104.5
20
214.5
40
1.6
0
CIRCLE
5
84
100
AcDbEntity
8
pcb
6
ByLayer
62
256
370
-1
100
AcDbCircle
10
104.5
20
5.5
40
1.6
0
CIRCLE
5
85
100
AcDbEntity
8
pcb
6
ByLayer
62
256
370
-1
100
AcDbCircle
10
104.5
20
214.5
40
1.6
0
LINE
5
86
100
AcDbEntity
8
plate
6
ByLayer
62
256
370
-1
100
AcDbLine
10
-115
20
220
11
-115
21
0
0
LINE
5
87
100
AcDbEntity
8
plate
6
ByLayer
62
256
370
-1
100
AcDbLine
10
-115
20
220
11
115
21
220
0
LINE
5
88
100
AcDbEntity
8
plate
6
ByLayer
62
256
370
-1
100
AcDbLine
10
115
20
220
11
115
21
0
0
LINE
5
89
100
AcDbEntity
8
plate
6
ByLayer
62
256
370
-1
100
AcDbLine
10
-115
20
0
11
115
21
0
0
DIMENSION
5
8A
100
AcDbEntity
8
plate_dim
6
ByLayer
62
256
370
-1
100
AcDbDimension
2
*D1
10
115
20
233
30
0
11
0
21
234.875
31
0
70
32
71
5
3
Standard
53
0
210
0
220
0
230
1
100
AcDbAlignedDimension
13
-115
23
220
33
0
14
115
24
220
34
0
100
AcDbRotatedDimension
0
DIMENSION
5
8B
100
AcDbEntity
8
plate_dim
6
ByLayer
62
256
370
-1
100
AcDbDimension
2
*D2
10
-127
20
3.10862446895e-15
30
0
11
-128.875
21
110
31
0
70
33
71
5
3
Standard
53
0
210
0
220
0
230
1
100
AcDbAlignedDimension
13
-115
23
220
33
0
14
-115
24
0
34
0
0
LINE
5
8C
100
AcDbEntity
8
axes
6
ByLayer
62
256
370
-1
100
AcDbLine
10
0
20
250
11
0
21
-30
0
DIMENSION
5
8D
100
AcDbEntity
8
plate_dim
6
ByLayer
62
256
370
-1
100
AcDbDimension
2
*D3
10
-120
20
6.12323399574e-16
30
0
11
-121.875
21
55
31
0
70
32
71
5
3
Standard
53
0
210
0
220
0
230
1
100
AcDbAlignedDimension
13
-111
23
110
33
0
14
-115
24
0
34
0
50
90
100
AcDbRotatedDimension
0
LINE
5
8E
100
AcDbEntity
8
axes
6
ByLayer
62
256
370
-1
100
AcDbLine
10
-140
20
110
11
130
21
110
0
DIMENSION
5
8F
100
AcDbEntity
8
plate_dim
6
ByLayer
62
256
370
-1
100
AcDbDimension
2
*D4
10
120
20
110
30
0
11
118.125
21
157.5
31
0
70
32
71
5
3
Standard
53
0
210
0
220
0
230
1
100
AcDbAlignedDimension
13
111
23
205
33
0
14
120
24
110
34
0
50
90
100
AcDbRotatedDimension
0
LINE
5
90
100
AcDbEntity
8
axes
6
ByLayer
62
256
370
-1
100
AcDbLine
10
85
20
250
11
85
21
-20
0
LINE
5
91
100
AcDbEntity
8
axes
6
ByLayer
62
256
370
-1
100
AcDbLine
10
-85
20
250
11
-85
21
-20
0
LINE
5
92
100
AcDbEntity
8
axes
6
ByLayer
62
256
370
-1
100
AcDbLine
10
-140
20
145
11
130
21
145
0
LINE
5
93
100
AcDbEntity
8
axes
6
ByLayer
62
256
370
-1
100
AcDbLine
10
-140
20
75
11
130
21
75
0
INSERT
5
94
100
AcDbEntity
8
0
6
ByLayer
62
256
370
-1
100
AcDbBlockReference
2
lm8uu
10
-85
20
145
30
0
41
1
42
1
43
0
50
0
70
1
71
1
44
1
45
1
0
INSERT
5
95
100
AcDbEntity
8
0
6
ByLayer
62
256
370
-1
100
AcDbBlockReference
2
lm8uu
10
85
20
145
30
0
41
1
42
1
43
0
50
0
70
1
71
1
44
1
45
1
0
INSERT
5
96
100
AcDbEntity
8
0
6
ByLayer
62
256
370
-1
100
AcDbBlockReference
2
lm8uu
10
85
20
75
30
0
41
1
42
1
43
0
50
0
70
1
71
1
44
1
45
1
0
INSERT
5
97
100
AcDbEntity
8
0
6
ByLayer
62
256
370
-1
100
AcDbBlockReference
2
lm8uu
10
-85
20
75
30
0
41
1
42
1
43
0
50
0
70
1
71
1
44
1
45
1
0
CIRCLE
5
98
100
AcDbEntity
8
plate
6
ByLayer
62
256
370
-1
100
AcDbCircle
10
112
20
205
40
1.6
0
CIRCLE
5
99
100
AcDbEntity
8
plate
6
ByLayer
62
256
370
-1
100
AcDbCircle
10
112
20
15
40
1.6
0
CIRCLE
5
9A
100
AcDbEntity
8
plate
6
ByLayer
62
256
370
-1
100
AcDbCircle
10
-112
20
110
40
1.6
0
CIRCLE
5
9B
100
AcDbEntity
8
alu_frame
6
ByLayer
62
256
370
-1
100
AcDbCircle
10
-112
20
110
40
1.6
0
CIRCLE
5
9C
100
AcDbEntity
8
alu_frame
6
ByLayer
62
256
370
-1
100
AcDbCircle
10
-101.7
20
145
40
1.6
0
CIRCLE
5
9D
100
AcDbEntity
8
alu_frame
6
ByLayer
62
256
370
-1
100
AcDbCircle
10
-68.3
20
145
40
1.6
0
CIRCLE
5
9E
100
AcDbEntity
8
alu_frame
6
ByLayer
62
256
370
-1
100
AcDbCircle
10
-101.7
20
75
40
1.6
0
CIRCLE
5
9F
100
AcDbEntity
8
alu_frame
6
ByLayer
62
256
370
-1
100
AcDbCircle
10
-68.3
20
75
40
1.6
0
CIRCLE
5
A0
100
AcDbEntity
8
alu_frame
6
ByLayer
62
256
370
-1
100
AcDbCircle
10
68.3
20
145
40
1.6
0
CIRCLE
5
A1
100
AcDbEntity
8
alu_frame
6
ByLayer
62
256
370
-1
100
AcDbCircle
10
101.7
20
145
40
1.6
0
CIRCLE
5
A2
100
AcDbEntity
8
alu_frame
6
ByLayer
62
256
370
-1
100
AcDbCircle
10
68.3
20
75
40
1.6
0
CIRCLE
5
A3
100
AcDbEntity
8
alu_frame
6
ByLayer
62
256
370
-1
100
AcDbCircle
10
101.7
20
75
40
1.6
0
CIRCLE
5
A4
100
AcDbEntity
8
alu_frame
6
ByLayer
62
256
370
-1
100
AcDbCircle
10
112
20
15
40
1.6
0
CIRCLE
5
A5
100
AcDbEntity
8
alu_frame
6
ByLayer
62
256
370
-1
100
AcDbCircle
10
112
20
205
40
1.6
0
LINE
5
A6
100
AcDbEntity
8
alu_frame
6
ByLayer
62
256
370
-1
100
AcDbLine
10
-70
20
165
11
0
21
165
0
ARC
5
A7
100
AcDbEntity
8
alu_frame
6
ByLayer
62
256
370
-1
100
AcDbCircle
10
-114
20
122
40
2
100
AcDbArc
50
270
51
0
0
LINE
5
A8
100
AcDbEntity
8
alu_frame
6
ByLayer
62
256
370
-1
100
AcDbLine
10
-112
20
122
11
-112
21
160.033830457
0
LINE
5
A9
100
AcDbEntity
8
alu_frame
6
ByLayer
62
256
370
-1
100
AcDbLine
10
-106.995428036
20
165.033828367
11
-70
21
165
0
ARC
5
AA
100
AcDbEntity
8
alu_frame
6
ByLayer
62
256
370
-1
100
AcDbCircle
10
-107
20
160.033830457
40
5
100
AcDbArc
50
89.9476091448
51
180
0
LINE
5
AB
100
AcDbEntity
8
alu_frame
6
ByLayer
62
256
370
-1
100
AcDbLine
10
112
20
194
11
112
21
110
0
ARC
5
AC
100
AcDbEntity
8
alu_frame
6
ByLayer
62
256
370
-1
100
AcDbCircle
10
114
20
194
40
2
100
AcDbArc
50
90
51
180
0
LINE
5
AD
100
AcDbEntity
8
alu_frame
6
ByLayer
62
256
370
-1
100
AcDbLine
10
0
20
165
11
36.6936789326
21
165
0
ARC
5
AE
100
AcDbEntity
8
alu_frame
6
ByLayer
62
256
370
-1
100
AcDbCircle
10
36.6936789326
20
175
40
10
100
AcDbArc
50
270
51
306.591088267
0
LINE
5
AF
100
AcDbEntity
8
alu_frame
6
ByLayer
62
256
370
-1
100
AcDbLine
10
42.6546789153
20
166.970897983
11
103.345321085
21
212.029102017
0
ARC
5
B0
100
AcDbEntity
8
alu_frame
6
ByLayer
62
256
370
-1
100
AcDbCircle
10
109.306321067
20
204
40
10
100
AcDbArc
50
90
51
126.591088267
0
LINE
5
B1
100
AcDbEntity
8
alu_frame
6
ByLayer
62
256
370
-1
100
AcDbLine
10
-70
20
55
11
0
21
55
0
ARC
5
B2
100
AcDbEntity
8
alu_frame
6
ByLayer
62
256
370
-1
100
AcDbCircle
10
-114
20
98
40
2
100
AcDbArc
50
0
51
90
0
LINE
5
B3
100
AcDbEntity
8
alu_frame
6
ByLayer
62
256
370
-1
100
AcDbLine
10
-112
20
98
11
-112
21
59.9661695427
0
LINE
5
B4
100
AcDbEntity
8
alu_frame
6
ByLayer
62
256
370
-1
100
AcDbLine
10
-106.995428036
20
54.966171633
11
-70
21
55
0
ARC
5
B5
100
AcDbEntity
8
alu_frame
6
ByLayer
62
256
370
-1
100
AcDbCircle
10
-107
20
59.9661695427
40
5
100
AcDbArc
50
180
51
270.052390855
0
LINE
5
B6
100
AcDbEntity
8
alu_frame
6
ByLayer
62
256
370
-1
100
AcDbLine
10
112
20
26
11
112
21
110
0
ARC
5
B7
100
AcDbEntity
8
alu_frame
6
ByLayer
62
256
370
-1
100
AcDbCircle
10
114
20
26
40
2
100
AcDbArc
50
180
51
270
0
LINE
5
B8
100
AcDbEntity
8
alu_frame
6
ByLayer
62
256
370
-1
100
AcDbLine
10
0
20
55
11
36.6936789326
21
55
0
ARC
5
B9
100
AcDbEntity
8
alu_frame
6
ByLayer
62
256
370
-1
100
AcDbCircle
10
36.6936789326
20
45
40
10
100
AcDbArc
50
53.4089117326
51
90
0
LINE
5
BA
100
AcDbEntity
8
alu_frame
6
ByLayer
62
256
370
-1
100
AcDbLine
10
42.6546789153
20
53.0291020175
11
103.345321085
21
7.97089798254
0
ARC
5
BB
100
AcDbEntity
8
alu_frame
6
ByLayer
62
256
370
-1
100
AcDbCircle
10
109.306321067
20
16
40
10
100
AcDbArc
50
233.408911733
51
270
0
LINE
5
BC
100
AcDbEntity
8
alu_frame
6
ByLayer
62
256
370
-1
100
AcDbLine
10
-115
20
120
11
-114
21
120
0
LINE
5
BD
100
AcDbEntity
8
alu_frame
6
ByLayer
62
256
370
-1
100
AcDbLine
10
-118
20
117
11
-118
21
110
0
ARC
5
BE
100
AcDbEntity
8
alu_frame
6
ByLayer
62
256
370
-1
100
AcDbCircle
10
-115
20
117
40
3
100
AcDbArc
50
90
51
180
0
LINE
5
BF
100
AcDbEntity
8
alu_frame
6
ByLayer
62
256
370
-1
100
AcDbLine
10
-115
20
100
11
-114
21
100
0
LINE
5
C0
100
AcDbEntity
8
alu_frame
6
ByLayer
62
256
370
-1
100
AcDbLine
10
-118
20
103
11
-118
21
110
0
ARC
5
C1
100
AcDbEntity
8
alu_frame
6
ByLayer
62
256
370
-1
100
AcDbCircle
10
-115
20
103
40
3
100
AcDbArc
50
180
51
270
0
ARC
5
C2
100
AcDbEntity
8
alu_frame
6
ByLayer
62
256
370
-1
100
AcDbCircle
10
-50
20
135
40
5
100
AcDbArc
50
90
51
180
0
LINE
5
C3
100
AcDbEntity
8
alu_frame
6
ByLayer
62
256
370
-1
100
AcDbLine
10
-50
20
140
11
50
21
140
0
ARC
5
C4
100
AcDbEntity
8
alu_frame
6
ByLayer
62
256
370
-1
100
AcDbCircle
10
50
20
135
40
5
100
AcDbArc
50
0
51
90
0
LINE
5
C5
100
AcDbEntity
8
alu_frame
6
ByLayer
62
256
370
-1
100
AcDbLine
10
55
20
135
11
55
21
85
0
ARC
5
C6
100
AcDbEntity
8
alu_frame
6
ByLayer
62
256
370
-1
100
AcDbCircle
10
50
20
85
40
5
100
AcDbArc
50
270
51
0
0
LINE
5
C7
100
AcDbEntity
8
alu_frame
6
ByLayer
62
256
370
-1
100
AcDbLine
10
50
20
80
11
-50
21
80
0
LINE
5
C8
100
AcDbEntity
8
alu_frame
6
ByLayer
62
256
370
-1
100
AcDbLine
10
-55
20
85
11
-55
21
135
0
ARC
5
C9
100
AcDbEntity
8
alu_frame
6
ByLayer
62
256
370
-1
100
AcDbCircle
10
-50
20
85
40
5
100
AcDbArc
50
180
51
270
0
LINE
5
CA
100
AcDbEntity
8
alu_frame
6
ByLayer
62
256
370
-1
100
AcDbLine
10
114
20
214
11
109.306321067
21
214
0
ARC
5
CB
100
AcDbEntity
8
alu_frame
6
ByLayer
62
256
370
-1
100
AcDbCircle
10
114
20
210
40
4
100
AcDbArc
50
0
51
90
0
LINE
5
CC
100
AcDbEntity
8
alu_frame
6
ByLayer
62
256
370
-1
100
AcDbLine
10
114
20
196
11
114
21
196
0
LINE
5
CD
100
AcDbEntity
8
alu_frame
6
ByLayer
62
256
370
-1
100
AcDbLine
10
118
20
200
11
118
21
210
0
ARC
5
CE
100
AcDbEntity
8
alu_frame
6
ByLayer
62
256
370
-1
100
AcDbCircle
10
114
20
200
40
4
100
AcDbArc
50
270
51
0
0
LINE
5
CF
100
AcDbEntity
8
alu_frame
6
ByLayer
62
256
370
-1
100
AcDbLine
10
114
20
24
11
114
21
24
0
ARC
5
D0
100
AcDbEntity
8
alu_frame
6
ByLayer
62
256
370
-1
100
AcDbCircle
10
114
20
20
40
4
100
AcDbArc
50
0
51
90
0
LINE
5
D1
100
AcDbEntity
8
alu_frame
6
ByLayer
62
256
370
-1
100
AcDbLine
10
114
20
6
11
109.306321067
21
6
0
LINE
5
D2
100
AcDbEntity
8
alu_frame
6
ByLayer
62
256
370
-1
100
AcDbLine
10
118
20
20
11
118
21
10
0
ARC
5
D3
100
AcDbEntity
8
alu_frame
6
ByLayer
62
256
370
-1
100
AcDbCircle
10
114
20
10
40
4
100
AcDbArc
50
270
51
0
0
ENDSEC
0
SECTION
2
OBJECTS
0
DICTIONARY
5
C
330
0
100
AcDbDictionary
281
1
3
ACAD_GROUP
350
D
0
DICTIONARY
5
D
330
C
100
AcDbDictionary
281
1
0
ENDSEC
0
EOF
